# xmcd
#
# Track frame offsets: 
#        150
#        17062
#        35150
#        45575
#        71372
#        94207
#        117642
#        148382
#        176392
#        200967
#        229625
#
# Disc length: 3473 seconds
#
# Revision: 3
# Processed by: cddbd v1.5.2PL0 Copyright (c) Steve Scherf et al.
# Submitted via: ExactAudioCopy v0.99pb4
#
DISCID=a30d8f0b
DTITLE=Cafe R&B - Black and White
DYEAR=1998
DGENRE=Blues
TTITLE0=Tall Grass
TTITLE1=Sitting on top of the World
TTITLE2=Black Cat Blues
TTITLE3=Steppin'
TTITLE4=Don't wake me
TTITLE5=Shine
TTITLE6=I'm Free
TTITLE7=Second Chance
TTITLE8=Phonecall from Leavenworth
TTITLE9=Take your hand out of my Pocket
TTITLE10=Smokestack Lightning
EXTD=YEAR: 1998
EXTT0=
EXTT1=
EXTT2=
EXTT3=
EXTT4=
EXTT5=
EXTT6=
EXTT7=
EXTT8=
EXTT9=
EXTT10=
PLAYORDER=
